<?xml version="1.0" standalone="no"?>
<!DOCTYPE svg PUBLIC "-//W3C//DTD SVG 20010904//EN"
 "http://www.w3.org/TR/2001/REC-SVG-20010904/DTD/svg10.dtd">
<svg version="1.0" xmlns="http://www.w3.org/2000/svg"
 width="800.000000pt" height="800.000000pt" viewBox="0 0 800.000000 800.000000"
 preserveAspectRatio="xMidYMid meet">

<g transform="translate(0.000000,800.000000) scale(0.100000,-0.100000)"
fill="#FFFF" stroke="none">
<path d="M3760 6863 c-397 -42 -791 -190 -1109 -415 -333 -235 -596 -544 -771
-903 -397 -819 -291 -1779 278 -2500 304 -384 755 -678 1246 -811 304 -82 712
-97 1026 -38 263 50 573 166 773 290 99 62 207 138 282 197 101 82 313 299
387 397 476 636 611 1422 371 2164 -279 865 -1037 1492 -1946 1611 -108 14
-436 19 -537 8z m-1055 -848 c60 -66 150 -165 200 -220 51 -55 163 -179 250
-275 87 -96 176 -195 199 -220 81 -88 206 -230 206 -234 0 -34 -26 -117 -44
-140 -33 -44 -108 -81 -200 -100 -119 -24 -130 -39 -147 -182 -13 -107 -25
-148 -88 -292 -69 -156 -54 -239 59 -330 162 -129 180 -152 180 -232 0 -113
-98 -202 -297 -274 -93 -33 -173 -44 -173 -24 0 8 -29 63 -65 124 -84 141
-109 220 -103 334 6 110 29 159 148 310 88 112 146 209 169 280 6 19 19 82 30
140 22 120 37 159 80 214 17 21 31 48 31 59 0 23 -51 120 -240 457 -95 169
-143 260 -136 260 2 0 68 -100 147 -222 197 -308 293 -450 316 -471 32 -28 73
-35 126 -22 55 14 87 39 87 70 0 27 -406 551 -790 1020 -172 210 -153 200 55
-30z m855 -336 c134 -21 238 -81 364 -207 l78 -79 52 10 c84 15 319 3 409 -22
84 -23 230 -91 260 -120 30 -30 35 -161 9 -230 -23 -58 -18 -85 18 -96 41 -13
86 38 111 125 7 25 16 49 20 53 19 23 143 -178 175 -282 25 -82 18 -86 -43
-23 -75 76 -112 88 -333 107 -207 17 -222 19 -322 52 -142 45 -222 113 -376
318 -102 136 -251 282 -329 323 -34 18 -97 41 -139 52 -43 11 -80 22 -82 25
-9 8 60 5 128 -6z m1245 -156 c0 -54 3 -110 8 -125 4 -15 52 -77 107 -138 55
-60 100 -112 100 -115 0 -3 -37 24 -82 60 -56 44 -85 62 -92 55 -6 -6 -14 -50
-17 -98 -4 -48 -14 -104 -24 -126 -20 -48 -28 -43 -13 10 13 48 4 190 -15 235
-20 48 -48 71 -157 128 -52 28 -90 51 -83 51 7 0 52 -14 100 -31 48 -16 96
-33 106 -36 14 -4 17 1 17 29 0 56 31 198 44 198 0 0 1 -44 1 -97z m-1274 51
c45 -23 89 -65 109 -104 11 -21 32 -91 48 -156 20 -82 41 -139 67 -182 40 -70
40 -92 -2 -92 -82 1 -210 108 -267 223 -19 40 -42 100 -50 133 -15 60 -22 195
-10 206 7 7 70 -9 105 -28z m832 -709 c29 -9 131 -29 227 -45 228 -39 278 -52
380 -102 195 -95 303 -277 286 -483 -7 -81 -35 -187 -60 -220 -12 -17 -14 -15
-21 26 -17 104 -94 194 -222 262 -37 19 -148 69 -245 110 -366 153 -471 244
-500 429 -16 108 -11 115 52 73 28 -19 75 -42 103 -50z m-622 -85 c51 -37 72
-97 49 -141 -18 -32 -89 -62 -162 -67 -61 -4 -68 -3 -92 21 -50 50 -26 152 46
198 41 25 114 20 159 -11z m719 -387 c35 -68 40 -192 12 -257 -44 -97 -149
-178 -267 -205 -27 -6 -115 -15 -195 -21 -80 -6 -183 -20 -229 -31 -46 -11
-86 -17 -89 -15 -2 3 28 21 68 41 70 35 144 55 346 94 233 44 334 151 321 340
-3 42 -9 87 -13 101 -12 40 17 10 46 -47z m158 -26 c20 -13 84 -50 142 -82
144 -79 197 -115 258 -177 97 -97 139 -217 129 -368 -12 -175 -97 -322 -236
-412 -65 -41 -74 -37 -48 20 18 38 22 65 22 142 0 86 -3 101 -31 161 -18 37
-82 143 -143 237 -61 93 -120 190 -130 216 -38 87 -47 189 -25 269 7 23 17 22
62 -6z m-697 -607 c132 -25 247 -115 290 -228 12 -31 30 -106 40 -167 11 -60
24 -125 30 -143 14 -41 53 -88 90 -107 36 -19 132 -19 192 -1 26 8 47 11 47 6
0 -4 -28 -22 -62 -40 -51 -28 -72 -33 -127 -33 -78 0 -128 22 -182 80 -41 43
-49 57 -118 204 -40 85 -60 115 -104 155 -82 75 -163 92 -244 53 -50 -24 -73
-61 -73 -118 0 -106 152 -173 218 -95 33 38 28 109 -11 137 -30 23 -89 26
-112 7 -21 -18 -19 -77 3 -89 9 -6 12 -11 5 -11 -18 0 -43 29 -43 51 0 53 39
88 98 89 177 1 173 -259 -3 -286 -83 -12 -126 9 -239 114 -114 108 -181 145
-291 162 -38 6 -71 13 -74 15 -9 9 26 39 119 101 192 127 379 176 551 144z"/>
<path d="M2807 3968 c-2 -7 3 -18 12 -24 13 -10 13 -16 3 -39 -24 -53 30 -76
67 -28 23 28 21 54 -7 86 -17 20 -68 23 -75 5z"/>
<path d="M3606 4765 c-21 -21 -20 -38 2 -58 26 -24 78 -21 103 4 18 18 19 23
6 42 -19 28 -87 36 -111 12z"/>
<path d="M2716 1568 c-13 -19 -16 -57 -16 -219 0 -211 3 -224 52 -217 23 3 23
5 28 166 l5 162 165 -165 c91 -91 172 -165 181 -165 36 0 39 22 37 241 l-3
214 -30 0 -30 0 -3 -150 c-1 -82 -5 -156 -7 -164 -4 -10 -61 41 -174 152 -92
92 -172 167 -179 167 -6 0 -18 -10 -26 -22z"/>
<path d="M4832 1563 c-28 -42 -241 -398 -248 -417 -5 -13 1 -16 29 -16 44 0
53 12 162 200 43 74 81 139 85 143 6 7 100 -142 100 -158 0 -3 -29 -5 -64 -5
-56 0 -67 -3 -80 -22 -9 -12 -16 -26 -16 -30 0 -5 46 -8 103 -8 l102 0 20 -37
c39 -71 54 -84 96 -81 21 1 39 3 39 4 0 2 -52 90 -116 196 -167 278 -174 285
-212 231z"/>
<path d="M2150 1428 c0 -127 4 -160 19 -193 35 -77 91 -104 216 -105 96 0 144
12 186 47 52 44 59 75 59 248 l0 155 -35 0 -35 0 0 -139 c0 -154 -9 -195 -50
-216 -42 -22 -121 -28 -184 -15 -88 18 -96 37 -96 223 l0 147 -40 0 -40 0 0
-152z"/>
<path d="M3252 1358 l3 -223 35 0 35 0 3 223 2 222 -40 0 -40 0 2 -222z"/>
<path d="M3462 1560 c-77 -47 -68 -176 14 -215 24 -11 67 -15 166 -15 145 0
162 -5 173 -52 5 -19 1 -32 -14 -47 -20 -20 -32 -21 -207 -21 l-185 0 3 -37 3
-38 185 0 c202 0 236 7 266 53 22 33 24 110 4 146 -25 48 -55 56 -208 56 -156
0 -175 7 -175 59 0 17 5 37 12 44 8 8 69 14 189 17 191 5 178 1 173 55 -1 13
-28 15 -183 15 -165 0 -186 -2 -216 -20z"/>
<path d="M3987 1473 c32 -60 85 -159 118 -221 82 -154 101 -158 165 -38 19 36
37 66 40 66 3 0 21 -30 40 -67 40 -75 61 -93 88 -77 9 6 53 78 97 160 45 82
98 179 118 217 l37 67 -42 0 -43 0 -89 -170 c-50 -94 -93 -167 -97 -163 -4 5
-44 81 -88 171 l-81 162 -46 0 c-25 0 -44 -3 -42 -8 2 -4 27 -54 56 -110 l53
-103 -33 -60 c-40 -73 -30 -82 -139 129 l-80 152 -45 0 -44 0 57 -107z"/>
<path d="M5218 1568 c-2 -7 -3 -33 -2 -58 0 -25 1 -121 2 -213 l2 -168 33 3
32 3 5 185 5 185 138 0 139 0 24 -28 c31 -36 31 -78 0 -114 -23 -27 -28 -28
-135 -31 l-111 -4 0 -34 0 -34 113 0 c129 0 167 13 205 70 20 30 23 45 20 102
-4 75 -26 109 -85 134 -44 19 -379 20 -385 2z"/>
</g>
</svg>
